<svg width="279" height="177" viewBox="0 0 279 177" fill="none" xmlns="http://www.w3.org/2000/svg">
<path d="M115.626 112.064H9.37402V18.491L13.8977 13.3294H110.266L115.626 18.491V112.064Z" fill="#F9F6F9"/>
<path d="M110.317 15.9758V112.064H115.626V18.491L110.317 15.9758Z" fill="#DDDAEC"/>
<path d="M100.757 0H24.2432C19.158 0 14.6333 3.22681 12.9768 8.03442L9.37402 18.491H115.626L112.023 8.03467C110.367 3.22681 105.842 0 100.757 0V0Z" fill="#0D98EF"/>
<path d="M112.023 8.03442C110.367 3.22681 105.842 0 100.757 0H95.4478C100.533 0 105.058 3.22681 106.714 8.03442L110.317 18.4907H115.626L112.023 8.03442Z" fill="#0387E9"/>
<path d="M115.626 112.064H9.37402V118.858C9.37402 122.25 12.124 125 15.5159 125H109.484C112.876 125 115.626 122.25 115.626 118.858V112.064H115.626Z" fill="#407093"/>
<path d="M110.317 112.064V118.858C110.317 122.25 107.567 125 104.175 125H109.484C112.876 125 115.626 122.25 115.626 118.858V112.064H110.317Z" fill="#365E7D"/>
<path d="M28.8789 13.3293C31.1344 13.3293 32.9629 11.5009 32.9629 9.24536C32.9629 6.98984 31.1344 5.16138 28.8789 5.16138C26.6234 5.16138 24.7949 6.98984 24.7949 9.24536C24.7949 11.5009 26.6234 13.3293 28.8789 13.3293Z" fill="#F9F6F9"/>
<path d="M46.9058 13.3293C49.1613 13.3293 50.9897 11.5009 50.9897 9.24536C50.9897 6.98984 49.1613 5.16138 46.9058 5.16138C44.6502 5.16138 42.8218 6.98984 42.8218 9.24536C42.8218 11.5009 44.6502 13.3293 46.9058 13.3293Z" fill="#F9F6F9"/>
<path d="M65.7812 11.1318H59.3608C58.3191 11.1318 57.4746 10.2873 57.4746 9.2456C57.4746 8.20385 58.3191 7.35937 59.3608 7.35937H65.7812C66.8232 7.35937 67.6675 8.20385 67.6675 9.2456C67.6675 10.2873 66.8232 11.1318 65.7812 11.1318Z" fill="#F9F6F9"/>
<path d="M82.9932 11.1318H76.5728C75.5308 11.1318 74.6865 10.2873 74.6865 9.2456C74.6865 8.20385 75.531 7.35937 76.5728 7.35937H82.9932C84.0352 7.35937 84.8794 8.20385 84.8794 9.2456C84.8794 10.2873 84.0352 11.1318 82.9932 11.1318Z" fill="#F9F6F9"/>
<path d="M100.205 11.1318H93.7847C92.7427 11.1318 91.8984 10.2873 91.8984 9.2456C91.8984 8.20385 92.7429 7.35937 93.7847 7.35937H100.205C101.247 7.35937 102.091 8.20385 102.091 9.2456C102.091 10.2873 101.247 11.1318 100.205 11.1318Z" fill="#F9F6F9"/>
<path d="M62.4524 99.6628C81.4427 99.6628 96.8374 84.2682 96.8374 65.2778C96.8374 46.2875 81.4427 30.8928 62.4524 30.8928C43.4621 30.8928 28.0674 46.2875 28.0674 65.2778C28.0674 84.2682 43.4621 99.6628 62.4524 99.6628Z" fill="#407093"/>
<path d="M62.4524 30.8926C61.4175 30.8926 60.394 30.9409 59.3823 31.0305C76.9341 32.584 90.6973 47.3223 90.6973 65.2776C90.6973 83.2329 76.9341 97.9714 59.3823 99.5247C60.394 99.6143 61.4175 99.6626 62.4524 99.6626C81.4429 99.6626 96.8374 84.2678 96.8374 65.2773C96.8374 46.2869 81.4426 30.8926 62.4524 30.8926Z" fill="#365E7D"/>
<path d="M115.626 34.4729H100.948C98.678 34.4729 96.8374 32.6323 96.8374 30.3618C96.8374 28.0913 98.678 26.2507 100.948 26.2507H115.626V34.4729Z" fill="#0D98EF"/>
<path d="M110.317 26.2507H115.626V34.4729H110.317V26.2507Z" fill="#0387E9"/>
<path d="M9.37402 95.5518H24.0515C26.322 95.5518 28.1626 97.3923 28.1626 99.6628C28.1626 101.933 26.322 103.774 24.0515 103.774H9.37402V95.5518Z" fill="#0D98EF"/>
<path d="M85.6187 68.553C84.5767 68.553 83.7324 67.7085 83.7324 66.6667V63.8889C83.7324 62.8469 84.5769 62.0027 85.6187 62.0027C86.6604 62.0027 87.5049 62.8472 87.5049 63.8889V66.6667C87.5049 67.7085 86.6604 68.553 85.6187 68.553Z" fill="#365E7D"/>
<path d="M60.7952 64.9199C65.864 68.292 72.1812 68.3484 77.6511 67.3638C77.6116 67.105 77.5911 66.8408 77.5911 66.5732V63.9819C77.5911 61.8413 78.8984 59.918 80.8889 59.1306C83.97 57.9116 85.1604 54.1587 83.3235 51.4011C78.8413 44.6721 71.1924 40.2336 62.5049 40.2158C48.8477 40.1877 37.583 51.2644 37.3926 64.9202C37.3926 64.9199 49.3362 57.2971 60.7952 64.9199Z" fill="#F9F6F9"/>
<path d="M83.3235 51.4009C78.8413 44.6719 71.1924 40.2334 62.5049 40.2156C61.5115 40.2136 60.5313 40.272 59.5664 40.3843C67.0645 41.2473 73.5559 45.417 77.542 51.4011C79.3789 54.1589 78.1887 57.9116 75.1074 59.1306C73.117 59.9182 71.8096 61.8416 71.8096 63.9819C71.8262 66.5073 71.731 66.9531 71.9876 67.9158C73.9177 67.9023 75.8313 67.6912 77.6509 67.3635C77.551 66.7107 77.6069 66.4441 77.5908 63.9817C77.5908 61.8411 78.8982 59.9177 80.8887 59.1304C83.9702 57.9114 85.1607 54.1587 83.3235 51.4009Z" fill="#DDDAEC"/>
<path d="M62.4524 90.3398C71.1724 90.3398 78.8511 85.886 83.3401 79.1296C85.1673 76.3796 83.96 72.6399 80.8899 71.425L80.889 71.4248C79.1473 70.7356 77.9285 69.177 77.6512 67.3638C72.1812 68.3484 65.8641 68.292 60.7952 64.9199C49.3362 57.2969 37.3926 64.9199 37.3926 64.9199C37.1973 78.9253 48.4918 90.3398 62.4524 90.3398Z" fill="#0D98EF"/>
<path d="M80.8899 71.4251L80.8889 71.4248C79.1472 70.7356 77.9285 69.177 77.6511 67.3638C75.8313 67.6914 73.9177 67.9026 71.9878 67.916C72.407 69.4888 73.5459 70.8069 75.1077 71.4248L75.1086 71.4251C78.1787 72.6396 79.3857 76.3796 77.5588 79.1296C73.5725 85.1296 67.0696 89.3105 59.5571 90.1724C60.5073 90.2817 61.4731 90.3398 62.4526 90.3398C71.1726 90.3398 78.8513 85.886 83.3403 79.1296C85.1672 76.3796 83.96 72.6396 80.8899 71.4251Z" fill="#0387E9"/>
<path d="M27.02 120.419H20.9937C19.9519 120.419 19.1074 119.574 19.1074 118.532C19.1074 117.49 19.9519 116.646 20.9937 116.646H27.0203C28.062 116.646 28.9065 117.491 28.9065 118.532C28.9065 119.574 28.0618 120.419 27.02 120.419Z" fill="#365E7D"/>
<path d="M103.911 120.419H97.8845C96.8425 120.419 95.9983 119.574 95.9983 118.532C95.9983 117.49 96.8428 116.646 97.8845 116.646H103.911C104.953 116.646 105.797 117.491 105.797 118.532C105.797 119.574 104.953 120.419 103.911 120.419Z" fill="#365E7D"/>
<path d="M123.954 93C124.13 92.0039 124.218 90.9199 124.218 89.748V34.5527H133.007L156.298 71.2031V37.541C156.298 35.9297 156.151 34.9336 155.858 34.5527H167.724C167.577 35.7246 167.504 37.0137 167.504 38.4199V93H158.363L135.424 57.7998V93H123.954ZM191.894 93C187.587 93 184.73 93.0879 183.324 93.2637V34.2891C184.027 34.4648 185.478 34.5527 187.675 34.5527C189.901 34.5527 192.479 34.4941 195.409 34.377V82.4531H204.506C207.143 82.4531 209.252 82.3652 210.834 82.1895C210.629 89.0449 210.526 92.6045 210.526 92.8682V93.3076C207.655 93.1025 202.836 93 196.068 93H191.894ZM233.202 93C233.583 91.8574 233.773 89.1914 233.773 85.002V72.7852C228.705 61.623 225.468 54.665 224.062 51.9111C222.655 49.1279 221.469 46.9307 220.502 45.3193C217.455 40.1631 215.609 37.2041 214.965 36.4424C214.35 35.6807 213.72 35.0508 213.075 34.5527H228.236C228.559 35.1387 228.998 36.0029 229.555 37.1455L240.189 59.6016C240.688 58.3711 241.273 56.9941 241.947 55.4707C248.334 41.7305 251.571 34.7578 251.659 34.5527H266.161C264.667 35.7539 262.836 38.2734 260.668 42.1113C259.994 43.2539 259.32 44.5576 258.646 46.0225L248.715 66.7207C247.602 69.2109 246.649 71.4521 245.858 73.4443V86.0566C245.858 88.9863 246.034 91.3008 246.386 93H233.202Z" fill="#365E7D"/>
<path d="M20.628 168.18C17.34 168.18 14.856 166.968 13.176 164.544C11.496 162.096 10.656 158.988 10.656 155.22C10.656 151.452 11.496 148.38 13.176 146.004C14.88 143.628 17.364 142.44 20.628 142.44C23.916 142.44 26.412 143.628 28.116 146.004C29.82 148.38 30.672 151.452 30.672 155.22C30.672 160.38 29.208 164.1 26.28 166.38C24.72 167.58 22.836 168.18 20.628 168.18ZM20.7 144.78C18.252 144.78 16.416 145.8 15.192 147.84C13.992 149.88 13.392 152.376 13.392 155.328C13.392 158.28 14.004 160.764 15.228 162.78C16.476 164.796 18.3 165.804 20.7 165.804C23.1 165.804 24.912 164.784 26.136 162.744C27.36 160.704 27.972 158.136 27.972 155.04C27.972 151.152 26.88 148.248 24.696 146.328C23.568 145.296 22.236 144.78 20.7 144.78ZM38.3198 153.708V168H35.6198V150H37.3478L37.7798 151.764C38.3318 151.332 38.7758 150.996 39.1118 150.756C39.4718 150.516 40.0358 150.276 40.8038 150.036C41.5718 149.772 42.3878 149.64 43.2518 149.64C44.9078 149.64 46.2758 150.156 47.3558 151.188C48.4598 152.196 49.0118 153.636 49.0118 155.508V168H46.3118V156.3C46.3118 153.396 45.0998 151.944 42.6758 151.944C40.9478 151.944 39.4958 152.532 38.3198 153.708ZM55.5533 168V142.8H58.2533V168H55.5533ZM64.2954 168V150H66.9954V168H64.2954ZM66.9954 142.8V146.004H64.2954V142.8H66.9954ZM75.6908 153.708V168H72.9908V150H74.7188L75.1508 151.764C75.7028 151.332 76.1468 150.996 76.4828 150.756C76.8428 150.516 77.4068 150.276 78.1748 150.036C78.9428 149.772 79.7588 149.64 80.6228 149.64C82.2788 149.64 83.6468 150.156 84.7268 151.188C85.8308 152.196 86.3828 153.636 86.3828 155.508V168H83.6828V156.3C83.6828 153.396 82.4708 151.944 80.0468 151.944C78.3188 151.944 76.8668 152.532 75.6908 153.708ZM105.416 159.576H93.9324C93.9324 161.88 94.4724 163.512 95.5524 164.472C96.6564 165.432 98.0364 165.912 99.6924 165.912C100.532 165.912 101.12 165.876 101.456 165.804C101.792 165.708 102.104 165.624 102.392 165.552C102.704 165.456 102.92 165.384 103.04 165.336C103.64 165.168 104.156 165.012 104.588 164.868L105.02 166.956C102.62 167.796 100.748 168.216 99.4044 168.216C96.9324 168.216 94.9524 167.472 93.4644 165.984C91.9764 164.472 91.2324 162.216 91.2324 159.216C91.2324 156.192 91.9284 153.84 93.3204 152.16C94.7364 150.48 96.5124 149.64 98.6484 149.64C100.808 149.64 102.488 150.336 103.688 151.728C104.888 153.12 105.488 155.004 105.488 157.38C105.488 158.028 105.464 158.76 105.416 159.576ZM94.1124 157.524H102.896C102.896 155.748 102.584 154.38 101.96 153.42C101.336 152.46 100.244 151.98 98.6844 151.98C97.1484 151.98 96.0204 152.496 95.3004 153.528C94.5804 154.56 94.1844 155.892 94.1124 157.524ZM133.038 168H119.538V142.8H122.238V165.66H133.038V168ZM144.329 157.236H145.805C145.805 155.052 145.529 153.636 144.977 152.988C144.425 152.316 143.201 151.98 141.305 151.98C139.409 151.98 137.801 152.232 136.481 152.736L135.977 150.648C137.993 149.976 140.081 149.64 142.241 149.64C146.465 149.64 148.577 151.752 148.577 155.976V168H146.993L146.057 165.876C144.953 166.788 143.993 167.412 143.177 167.748C142.385 168.06 141.461 168.216 140.405 168.216C138.725 168.216 137.417 167.724 136.481 166.74C135.545 165.732 135.077 164.412 135.077 162.78C135.077 159.084 138.161 157.236 144.329 157.236ZM145.841 159.504H144.221C141.773 159.504 140.081 159.744 139.145 160.224C138.233 160.704 137.777 161.46 137.777 162.492C137.777 163.5 138.041 164.328 138.569 164.976C139.097 165.624 139.781 165.948 140.621 165.948C141.485 165.948 142.301 165.756 143.069 165.372C143.861 164.964 144.785 164.268 145.841 163.284V159.504ZM165.412 163.428V150H168.148V168H166.564L165.664 165.876C163.744 167.436 161.908 168.216 160.156 168.216C158.404 168.216 157.06 167.712 156.124 166.704C155.212 165.672 154.756 164.22 154.756 162.348V150H157.456V161.916C157.456 163.332 157.66 164.352 158.068 164.976C158.5 165.6 159.196 165.912 160.156 165.912C161.14 165.912 162.136 165.648 163.144 165.12C164.152 164.592 164.908 164.028 165.412 163.428ZM177.398 153.708V168H174.698V150H176.426L176.858 151.764C177.41 151.332 177.854 150.996 178.19 150.756C178.55 150.516 179.114 150.276 179.882 150.036C180.65 149.772 181.466 149.64 182.33 149.64C183.986 149.64 185.354 150.156 186.434 151.188C187.538 152.196 188.09 153.636 188.09 155.508V168H185.39V156.3C185.39 153.396 184.178 151.944 181.754 151.944C180.026 151.944 178.574 152.532 177.398 153.708ZM204.891 142.8H207.591V168H206.007L205.107 165.948C202.899 167.508 200.979 168.288 199.347 168.288C195.027 168.288 192.867 165.18 192.867 158.964C192.867 155.436 193.635 152.976 195.171 151.584C196.539 150.312 198.087 149.676 199.815 149.676C201.543 149.676 203.235 150.264 204.891 151.44V142.8ZM204.891 163.536V154.176C204.387 153.576 203.715 153.06 202.875 152.628C202.059 152.196 201.303 151.98 200.607 151.98C198.735 151.98 197.427 152.532 196.683 153.636C195.939 154.74 195.567 156.468 195.567 158.82C195.567 161.172 195.939 162.948 196.683 164.148C197.427 165.348 198.375 165.948 199.527 165.948C201.255 165.948 203.043 165.144 204.891 163.536ZM216.843 154.248V168H214.143V150H215.871L216.303 152.124C217.455 151.212 218.415 150.576 219.183 150.216C219.951 149.832 220.827 149.64 221.811 149.64C222.291 149.64 222.651 149.664 222.891 149.712L223.395 149.856L222.963 152.34C222.531 152.196 221.943 152.124 221.199 152.124C219.759 152.124 218.307 152.832 216.843 154.248ZM230.707 168.36L224.623 150H227.683L232.255 165.12L236.863 150H239.851L233.659 168C232.867 170.328 231.991 172.128 231.031 173.4C230.071 174.672 228.835 175.704 227.323 176.496L226.315 174.624C227.275 174.072 228.175 173.256 229.015 172.176C229.855 171.096 230.419 169.824 230.707 168.36Z" fill="#365E7D"/>
</svg>
